<svg xmlns="http://www.w3.org/2000/svg" version="1.1" xmlns:xlink="http://www.w3.org/1999/xlink" xmlns:svgjs="http://svgjs.dev/svgjs" width="128" height="128" viewBox="0 0 128 128"><g transform="matrix(0.8046875,0,0,0.8046875,17.461947118153894,18.728966591018988)"><svg viewBox="0 0 96 84" data-background-color="#111111" preserveAspectRatio="xMidYMid meet" height="112" width="128" xmlns="http://www.w3.org/2000/svg" xmlns:xlink="http://www.w3.org/1999/xlink"><g id="tight-bounds" transform="matrix(1,0,0,1,-0.13004725878924717,0.29400444226861566)"><svg viewBox="0 0 95.481 83.47992250308494" height="83.47992250308494" width="95.481"><g><svg viewBox="0 0 95.481 83.47992250308494" height="83.47992250308494" width="95.481"><g><svg viewBox="0 0 95.481 83.47992250308494" height="83.47992250308494" width="95.481"><g id="textblocktransform"><svg viewBox="0 0 95.481 83.47992250308494" height="83.47992250308494" width="95.481" id="textblock"><g><svg viewBox="0 0 95.481 83.47992250308494" height="83.47992250308494" width="95.481"><g><svg viewBox="0 0 95.481 83.47992250308494" height="83.47992250308494" width="95.481"><g><svg xmlns="http://www.w3.org/2000/svg" xmlns:xlink="http://www.w3.org/1999/xlink" version="1.1" x="0" y="0" viewBox="10.000222298682127 15.026534080237807 80.00311683612318 69.9474659197622" enable-background="new 0 0 100 100" xml:space="preserve" height="83.47992250308494" width="95.481" class="icon-icon-0" data-fill-palette-color="accent" id="icon-0"><path d="M85.954 36.922C85.472 36.922 84.982 36.835 84.505 36.652L50 23.403 15.495 36.652A4.043 4.043 0 1 1 12.596 29.101L48.55 15.295A4.05 4.05 0 0 1 51.45 15.295L87.404 29.101A4.044 4.044 0 0 1 85.954 36.922" fill="#ffffff" data-fill-palette-color="accent"></path><g fill="#ffffff" data-fill-palette-color="accent"><circle cx="26.491" cy="53.376" r="7.6" fill="#ffffff" data-fill-palette-color="accent"></circle><path d="M40.647 71.829H22.447A4.044 4.044 0 1 1 22.447 63.741H36.603V49.585A4.044 4.044 0 1 1 44.692 49.585V67.785A4.044 4.044 0 0 1 40.647 71.829" fill="#ffffff" data-fill-palette-color="accent"></path><path d="M81.092 62.603V71.829H47.472V53.376H68.579C75.531 53.376 81.092 54.893 81.092 62.603" fill="#ffffff" data-fill-palette-color="accent"></path></g><path d="M82.807 84.974H17.193A4.044 4.044 0 1 1 17.193 76.886H82.807A4.044 4.044 0 1 1 82.807 84.974" fill="#ffffff" data-fill-palette-color="accent"></path></svg></g></svg></g></svg></g></svg></g></svg></g><g></g></svg></g><defs></defs></svg><rect width="95.481" height="83.47992250308494" fill="none" stroke="none" visibility="hidden"></rect></g></svg></g></svg>