<svg xmlns="http://www.w3.org/2000/svg" version="1.1" xmlns:xlink="http://www.w3.org/1999/xlink" xmlns:svgjs="http://svgjs.dev/svgjs" width="2000" height="2275" viewBox="0 0 2000 2275"><g transform="matrix(1,0,0,1,-0.4306099572700077,17.738965413156393)"><svg viewBox="0 0 218 248" data-background-color="#111111" preserveAspectRatio="xMidYMid meet" height="2275" width="2000" xmlns="http://www.w3.org/2000/svg" xmlns:xlink="http://www.w3.org/1999/xlink"><g id="tight-bounds" transform="matrix(1,0,0,1,0.046936485342428114,0.5744697153942013)"><svg viewBox="0 0 217.90612702931514 247.2" height="247.2" width="217.90612702931514"><g><svg viewBox="0 0 397.4975999999999 450.93457471611504" height="247.2" width="217.90612702931514"><g><rect width="397.4975999999999" height="10.395838616723976" x="0" y="298.04705764969555" fill="#ffffff" opacity="1" stroke-width="0" stroke="transparent" fill-opacity="1" class="rect-yte-0" data-fill-palette-color="primary" rx="1%" id="yte-0" data-palette-color="#ffffff"></rect></g><g transform="matrix(1,0,0,1,0.9887999999999693,335.6571334829744)"><svg viewBox="0 0 395.52 115.27744123314064" height="115.27744123314064" width="395.52"><g id="textblocktransform"><svg viewBox="0 0 395.52 115.27744123314064" height="115.27744123314064" width="395.52" id="textblock"><g><svg viewBox="0 0 395.52 115.27744123314064" height="115.27744123314064" width="395.52"><g transform="matrix(1,0,0,1,0,0)"><svg width="395.52" viewBox="3.2 -36.88 138.22 40.29" height="115.27744123314064" data-palette-color="#ffffff"><path d="M24.66-3.18L18.45-11.36 22.14-11.36 26.79-5.2 27.57-4.17 33.29 3.41 29.6 3.41 25.41-2.18 24.66-3.18ZM34.64-18.18L34.64-18.18Q34.64-12.5 32.62-8.3 30.59-4.1 27.05-1.8 23.51 0.5 18.91 0.5L18.91 0.5Q14.31 0.5 10.77-1.8 7.23-4.1 5.21-8.3 3.2-12.5 3.2-18.18L3.2-18.18Q3.2-23.86 5.21-28.06 7.23-32.26 10.78-34.56 14.33-36.86 18.91-36.86L18.91-36.86Q23.51-36.86 27.05-34.56 30.59-32.26 32.62-28.06 34.64-23.86 34.64-18.18ZM31.41-18.18L31.41-18.18Q31.41-23.06 29.78-26.55 28.14-30.04 25.32-31.89 22.5-33.74 18.91-33.74L18.91-33.74Q15.34-33.74 12.52-31.89 9.69-30.04 8.05-26.56 6.41-23.08 6.41-18.18L6.41-18.18Q6.41-13.3 8.04-9.82 9.68-6.34 12.5-4.48 15.32-2.63 18.91-2.63L18.91-2.63Q22.5-2.63 25.33-4.47 28.16-6.32 29.79-9.81 31.43-13.3 31.41-18.18ZM45.98 0L42.66 0 42.66-36.36 54.4-36.36Q58.27-36.36 60.87-34.88 63.47-33.4 64.8-30.86 66.12-28.32 66.12-25.14L66.12-25.14Q66.12-21.96 64.81-19.42 63.49-16.87 60.9-15.39 58.31-13.9 54.45-13.9L54.45-13.9 45.22-13.9 45.22-16.89 54.37-16.89Q57.22-16.89 59.11-17.96 60.99-19.03 61.92-20.9 62.85-22.76 62.85-25.14L62.85-25.14Q62.85-27.52 61.92-29.39 60.99-31.25 59.1-32.32 57.21-33.38 54.31-33.38L54.31-33.38 45.98-33.38 45.98 0ZM73.93 0L73.93-36.36 77.76-36.36 90.96-4.69 91.28-4.69 104.47-36.36 108.3-36.36 108.3 0 105.18 0 105.18-29.35 104.9-29.35 92.63 0 89.61 0 77.34-29.35 77.05-29.35 77.05 0 73.93 0ZM140.92-27.27L137.71-27.27Q137.4-30.31 135.02-32.1 132.65-33.9 129.04-33.9L129.04-33.9Q126.5-33.9 124.58-33.03 122.65-32.16 121.56-30.62 120.46-29.08 120.46-27.13L120.46-27.13Q120.46-25.69 121.09-24.61 121.71-23.53 122.76-22.75 123.82-21.98 125.11-21.43 126.4-20.88 127.71-20.51L127.71-20.51 131.54-19.41Q133.28-18.93 135.02-18.18 136.76-17.44 138.21-16.31 139.66-15.18 140.54-13.56 141.42-11.93 141.42-9.66L141.42-9.66Q141.42-6.75 139.91-4.42 138.4-2.1 135.57-0.74 132.75 0.62 128.81 0.62L128.81 0.62Q125.1 0.62 122.36-0.61 119.63-1.85 118.07-4.03 116.51-6.21 116.31-9.09L116.31-9.09 119.72-9.09Q119.9-6.94 121.14-5.45 122.38-3.96 124.37-3.19 126.36-2.41 128.81-2.41L128.81-2.41Q131.53-2.41 133.65-3.33 135.77-4.24 136.99-5.89 138.2-7.53 138.2-9.71L138.2-9.71Q138.2-11.56 137.24-12.81 136.29-14.06 134.57-14.91 132.86-15.77 130.6-16.42L130.6-16.42 126.25-17.7Q121.97-18.98 119.61-21.24 117.25-23.49 117.25-26.99L117.25-26.99Q117.25-29.92 118.82-32.15 120.39-34.38 123.08-35.63 125.77-36.88 129.13-36.88L129.13-36.88Q132.52-36.88 135.13-35.64 137.74-34.39 139.28-32.22 140.81-30.04 140.92-27.27L140.92-27.27Z" opacity="1" transform="matrix(1,0,0,1,0,0)" fill="#ffffff" class="wordmark-text-0" data-fill-palette-color="primary" id="text-0"></path></svg></g></svg></g></svg></g></svg></g><g transform="matrix(1,0,0,1,43.864920425117276,0)"><svg viewBox="0 0 309.76775914976537 270.8328204331406" height="270.8328204331406" width="309.76775914976537"><g><svg xmlns="http://www.w3.org/2000/svg" xmlns:xlink="http://www.w3.org/1999/xlink" version="1.1" x="0" y="0" viewBox="10.000222298682127 15.026534080237807 80.00311683612318 69.9474659197622" enable-background="new 0 0 100 100" xml:space="preserve" height="270.8328204331406" width="309.76775914976537" class="icon-icon-0" data-fill-palette-color="accent" id="icon-0"><path d="M85.954 36.922C85.472 36.922 84.982 36.835 84.505 36.652L50 23.403 15.495 36.652A4.043 4.043 0 1 1 12.596 29.101L48.55 15.295A4.05 4.05 0 0 1 51.45 15.295L87.404 29.101A4.044 4.044 0 0 1 85.954 36.922" fill="#ffffff" data-fill-palette-color="accent"></path><g fill="#ffffff" data-fill-palette-color="accent"><circle cx="26.491" cy="53.376" r="7.6" fill="#ffffff" data-fill-palette-color="accent"></circle><path d="M40.647 71.829H22.447A4.044 4.044 0 1 1 22.447 63.741H36.603V49.585A4.044 4.044 0 1 1 44.692 49.585V67.785A4.044 4.044 0 0 1 40.647 71.829" fill="#ffffff" data-fill-palette-color="accent"></path><path d="M81.092 62.603V71.829H47.472V53.376H68.579C75.531 53.376 81.092 54.893 81.092 62.603" fill="#ffffff" data-fill-palette-color="accent"></path></g><path d="M82.807 84.974H17.193A4.044 4.044 0 1 1 17.193 76.886H82.807A4.044 4.044 0 1 1 82.807 84.974" fill="#ffffff" data-fill-palette-color="accent"></path></svg></g></svg></g><g></g></svg></g><defs></defs></svg><rect width="217.90612702931514" height="247.2" fill="none" stroke="none" visibility="hidden"></rect></g></svg></g></svg>